<?xml version="1.0" encoding="utf-8"?>
<!-- Generator: Adobe Illustrator 28.0.0, SVG Export Plug-In . SVG Version: 6.00 Build 0)  -->
<svg version="1.1" id="Icon" xmlns="http://www.w3.org/2000/svg" xmlns:xlink="http://www.w3.org/1999/xlink" x="0px" y="0px"
	 viewBox="0 0 1500 1500" style="enable-background:new 0 0 1500 1500;" xml:space="preserve">
<style type="text/css">
	.st0{fill:none;stroke:#F2BE22;stroke-width:106;stroke-linecap:round;stroke-linejoin:round;stroke-miterlimit:10;}
	.st1{fill:#EE3CAF;}
	.st2{fill:none;stroke:#8856F2;stroke-width:106;stroke-linecap:round;stroke-linejoin:round;stroke-miterlimit:10;}
	.st3{fill:#F2BE22;}
	.st4{fill:#8856F2;}
	.st5{fill:#45F46A;}
	.st6{fill:none;stroke:#EE3CAF;stroke-width:106;stroke-linecap:round;stroke-linejoin:round;stroke-miterlimit:10;}
	.st7{fill:#FFFFFF;}
	.st8{fill:#A6374F;}
	.st9{fill:#60432C;}
	.st10{fill:#DE4D41;}
	.st11{fill:#EA8622;}
	.st12{fill:#F9A519;}
	.st13{fill:#378C42;}
	.st14{fill:#85C13F;}
</style>
<g id="Icon_10_-_Microphone">
	<path class="st0" d="M7018.99,2404.15c-57,34.8-123.99,54.85-195.66,54.85c-71.67,0-138.66-20.05-195.66-54.85"/>
	<line class="st0" x1="6823.33" y1="2779" x2="6823.33" y2="2459"/>
	<path class="st1" d="M6823.83,2359L6823.83,2359c-88.64,0-160.5-71.86-160.5-160.5v-277c0-88.64,71.86-160.5,160.5-160.5h0
		c88.64,0,160.5,71.86,160.5,160.5v277C6984.33,2287.14,6912.47,2359,6823.83,2359z"/>
	<line class="st2" x1="6824.33" y1="1976" x2="7038.33" y2="1976"/>
	<line class="st2" x1="6824.33" y1="2135" x2="7038.33" y2="2135"/>
</g>
<g id="Icon_09_-_Arrow">
	<path class="st3" d="M5627.58,1894.9l-275.76,0.11c-19.97,0.01-39.12,7.95-53.24,22.08l-0.76,0.76
		c-29.4,29.42-29.38,77.1,0.04,106.5l108.88,108.79l42-42.03c18.57-18.59,18.56-48.71-0.03-67.28l-21.87-21.85l201.66-0.08
		c29.85-0.01,53.98-24.47,53.47-54.43C5681.47,1918.13,5656.92,1894.89,5627.58,1894.9z"/>
	<path class="st1" d="M5684.89,1951.82l0.37,275.66c0.03,19.97-7.88,39.14-21.98,53.28c-0.25,0.25-0.51,0.51-0.76,0.76
		c-29.37,29.45-77.05,29.51-106.5,0.14c-36.29-36.26-72.58-73.64-108.87-109.91c12.56-12.81,25.14-25.6,37.75-38.35
		c1.55-1.57,3.1-3.14,4.65-4.7c17.54-17.72,46.12-17.88,63.89-0.39c8.16,8.03,16.31,16.06,24.47,24.09
		c0.09,0.09,0.25,0.03,0.25-0.11l-0.27-201.3c-0.04-29.18,23.29-52.94,52.33-53.55C5660.35,1896.78,5684.85,1921.69,5684.89,1951.82
		z"/>
	<path class="st3" d="M5515.76,2095.58"/>
	<path class="st1" d="M4950.41,2513.96L4950.41,2513.96c-20.89-20.89-20.89-54.76,0-75.65l456.28-457.28l42.82,42.82
		c18.13,18.13,18.13,47.53,0,65.67l-423.45,424.45C5005.17,2534.85,4971.3,2534.85,4950.41,2513.96z"/>
	<path class="st4" d="M5065.89,2629.43L5065.89,2629.43c20.89,20.89,54.76,20.89,75.65,0l456.28-457.28l-43.05-43.05
		c-18.01-18.01-47.21-18.01-65.21,0l-423.68,424.68C5045,2574.67,5045,2608.54,5065.89,2629.43z"/>
</g>
<g id="Icon_08_-_Shopping_Cart">
	<circle class="st5" cx="3991.49" cy="2633.48" r="78.34"/>
	<circle class="st5" cx="3669.49" cy="2633.48" r="78.34"/>
	<path class="st3" d="M4205.67,2475.37c1.64-30.62-23.46-56.08-54.12-56.08h-583.82c-2.68,0-4.85-2.17-4.85-4.85v-450.76
		c0-44.34-35.94-80.28-80.28-80.28h-108.67c-29.32,0-53.49,23.55-53.86,52.5c-0.18,14.11,5.08,27.42,14.83,37.56
		c10.23,10.64,24.55,16.35,39.3,16.35h77.41c2.68,0,4.85,2.18,4.85,4.86l-0.46,459.31c-0.04,39.39,31.87,71.35,71.26,71.37
		l625.28,0.35C4180.91,2525.7,4204.17,2503.38,4205.67,2475.37z"/>
	<path class="st2" d="M3669.79,1977.87v296.96c0,21.73,17.61,39.34,39.34,39.34h440.8l110-376l-551.09,0.35
		C3687.23,1938.69,3669.79,1956.26,3669.79,1977.87z"/>
	<path class="st5" d="M3989.24,2367.18h-112.55c-54.99,0-99.57-44.58-99.57-99.57v-339.86c0-54.99,44.58-99.57,99.57-99.57h112.55
		c54.99,0,99.57,44.58,99.57,99.57v339.86C4088.81,2322.6,4044.23,2367.18,3989.24,2367.18z"/>
</g>
<g id="Icon_07_-_Pencil">
	<line class="st6" x1="2504.4" y1="2035.93" x2="2075.32" y2="2464.34"/>
	<line class="st0" x1="2564.54" y1="1975.8" x2="2498.03" y2="2042.3"/>
	<path class="st5" d="M2023.13,2516.86c21.34,21.22,51.91,18.58,58.23,18.97l-52.95,14.19l-52.95,14.19l14.19-52.95l14.19-52.95
		C2004.22,2464.56,2001.58,2495.43,2023.13,2516.86z"/>
</g>
<g id="Icon_06_-_Home">
	<polyline class="st6" points="697,2592 429,2592 429,2160 751,1948 1071,2168 	"/>
	<polyline class="st0" points="857,2592 1071,2592 1071,2324 697,2324 697,2592 	"/>
</g>
<g id="Icon_05_-_Magnifying_Glass">
	<circle class="st3" cx="6940.65" cy="642.35" r="214.96"/>
	<path class="st6" d="M7146.44,580.06c5.96,19.72,9.17,40.63,9.17,62.3c0,118.72-96.24,214.96-214.96,214.96
		c-118.72,0-214.96-96.24-214.96-214.96s96.24-214.96,214.96-214.96c22.03,0,43.28,3.31,63.29,9.47"/>
	<line class="st2" x1="6789.32" y1="793.68" x2="6510.39" y2="1072.61"/>
</g>
<g id="Icon_04_-_File">
	<path class="st1" d="M5417.84,535.33c-29.74,0-53.85,24.11-53.85,53.85v0c0,29.74,24.11,53.85,53.85,53.85h160.15v321h-160.2
		c-29.71,0-53.8,24.09-53.8,53.8v0c0,29.71,24.09,53.8,53.8,53.8l185.57,0c45.08,0,81.63-36.55,81.63-81.63V616.96
		c0-45.08-36.55-81.63-81.63-81.63H5417.84z"/>
	<path class="st3" d="M5417.15,964.03h-375.16v-428l245.59-0.75l91.25,91.25c20.89,20.89,54.77,20.89,75.66,0v0
		c20.89-20.89,20.89-54.77,0-75.66l-103.7-104.85c-11.39-11.51-26.91-17.99-43.11-17.99h-303.15c-38.4,0-69.53,31.14-69.52,69.54
		l0.12,504.89c0.01,38.41,31.17,69.54,69.58,69.51l412.44-0.26c29.73,0,53.84-24.1,53.84-53.84v0
		C5470.99,988.13,5446.89,964.03,5417.15,964.03z"/>
</g>
<g id="Icon_03_-_Bell">
	<path class="st0" d="M3790.5,428.72c-207.66,0-376,168.34-376,376v109.56l-64,103.71h443.09v107.71"/>
	<path class="st2" d="M3950.5,1017.9h279l-63-106.34V804.72c0-161.26-101.52-298.81-244.13-352.23"/>
	<circle class="st5" cx="3790" cy="1178.91" r="78.34"/>
</g>
<g id="Icon_02_-_Image">
	<path class="st4" d="M2590.85,1071.06h-636.2c-61.25,0-110.9-49.65-110.9-110.9V539.84c0-61.25,49.65-110.9,110.9-110.9h636.2
		c61.25,0,110.9,49.65,110.9,110.9v420.32C2701.75,1021.41,2652.1,1071.06,2590.85,1071.06z"/>
	<g>
		<path class="st5" d="M2166.23,1010.28c-19.3,0-37.44-7.52-51.09-21.17l-164.27-164.32l-143.97,140.65
			c-21.14,20.65-55.01,20.25-75.66-0.88l0,0c-20.65-21.14-20.25-55.01,0.88-75.66l169.4-165.49c13.36-13.05,30.97-20.23,49.64-20.23
			c0.14,0,0.29,0,0.43,0c18.82,0.11,36.52,7.5,49.83,20.82l164.78,164.83l270.74-271.58c13.43-13.47,31.3-20.89,50.32-20.89
			s36.89,7.42,50.31,20.89l270.8,271.65c20.86,20.93,20.81,54.8-0.12,75.66l0,0c-20.93,20.86-54.8,20.81-75.66-0.12l-245.34-246.1
			l-269.86,270.7c-13.64,13.68-31.79,21.22-51.11,21.24C2166.27,1010.28,2166.25,1010.28,2166.23,1010.28z"/>
	</g>
	<circle class="st3" cx="2005.25" cy="589.56" r="53.5"/>
</g>
<g id="Icon_01_-_Camera">
	<g>
		<path class="st7" d="M-2622,3199c0-404.33,0-808.67,0-1213c490.66,0,981.34,0,1472,0c0,404.33,0,808.67,0,1213
			C-1640.66,3199-2131.34,3199-2622,3199z M-1786.34,2138.73c-19.39-3.41-37.34-6.65-55.29-9.71c-29.32-4.99-57.78-2.15-84.47,15.08
			c-20.09,12.97-31.96,33.1-31.19,61.69c0.76,28.89,14.46,47.13,35.18,58.23c3.73,2.01,7.57,3.77,11.47,5.23
			c58.73,21.99,142.99-9.63,181.8-68.17c33.31-50.23,23.68-104.94-23.6-132.85c-27.26-16.09-56.49-23.36-86.38-24.07
			c-61.92-1.48-119.18,19.33-171.41,60.26c-31.46,24.64-58.28,55.52-74.89,97.47c-26.81,67.69-20.2,155.57,65.62,183.81
			c3.15,1.04,6.31,2.08,9.49,2.91c45.33,11.83,90.29,6.82,134.65-6.59c72.39-21.88,132.09-68.15,175.1-144.52
			c6.94-12.32,12.43-26.03,17.61-39.66c1.21-3.21-1.6-8.75-2.56-13.24c-3.25,1.96-7.44,2.94-9.58,6.06
			c-4.17,6.08-6.6,13.99-10.8,20.04c-66.58,96-151.36,137.82-252.49,122.42c-64.24-9.79-92.75-83.95-63.09-155.18
			c13.98-33.55,35.77-57.3,62.98-73.41c40.2-23.79,82.96-29.95,126.63-23.11c15,2.35,30.43,8.92,43.68,17.96
			c32.62,22.22,36.95,61.52,12.04,95.76c-19.12,26.3-43.22,42.52-70.74,50.97c-20.83,6.4-41.37,3.6-61.15-6.14
			c-11.43-5.64-19.69-20.6-17.68-31.3c2.82-15.02,13.03-19.06,23.42-19.73c12.15-0.77,24.44,0.13,36.58,1.6
			c27.37,3.32,51.08-5.21,69.27-31.6C-1791.88,2152.72-1789.23,2144.81-1786.34,2138.73z M-1905.93,3107.14
			c20.09,16,43.29,10.3,47.21-12.9c-9.01,0-17.77,0-28.09,0c0-7.55,0-13.44,0-19.33c0-5.78,0-11.56,0-16.88c-8.01,0-13.89,0-19.47,0
			c-1.12,8.1-1.48,15.27-3.18,21.92c-2.98,11.69-10.33,16.79-19.89,15.56c-9.54-1.23-13.93-9.03-14.74-20.55
			c-1.53-21.45,7.23-34.04,24.79-33.23c10.26,0.47,20.44,3.47,34.07,5.97c-3.03-9.26-4.18-21.37-7.89-22.71
			c-19.42-6.98-39.74-10.25-57.42,6.3c-16.06,15.02-17.31,36.31-13.33,58.88c0.14,0.76-0.42,1.71-0.76,2.94c-15.93,0-31.88,0-49.2,0
			c10.81-21.13,12.85-42.17,0.16-60.13c-13.92-19.68-32.02-14.72-50.82-4.9c0-19.49,0-37.39,0-54.85c-10.96,0-20.53,0-30.62,0
			c1.27,8.59-4.06,19.33,7.75,20.55c0.81,0.08,2.02,3.08,2.02,4.74c0.12,31.54,0.09,63.1,0.09,94.62c-17.38,0-33.05,0-49.82,0
			c0-12.59,0.46-24.13-0.09-35.58c-1.23-25.19-11.98-38.3-32.24-37.04c-10.14,0.63-20.11,5.58-31.42,8.94
			c-14.5-13.25-31.15-13.38-45.86-2.2c-11.4-2.92-20.86-5.35-32.11-8.24c1.44,11.23-4.98,22.03,7.72,23.99
			c0.96,0.14,2.17,4.06,2.2,6.24c0.2,14.45,0.1,28.92,0.1,44.03c-17.05,0-32.69,0-49.64,0c0-12.29,0-23.63,0-35.41
			c-7.59,0-13.87,0-20.35,0c-0.69,7.33-0.66,13.96-2.01,20.14c-2.7,12.24-9.66,18.62-20,17.59c-10.36-1.03-14.55-9.78-15.52-21.51
			c-1.59-19.14,7.59-32.73,23.36-32.3c10.68,0.28,21.31,3.4,31.97,5.28c1.68-23.11,1.29-24.01-16.92-26.04
			c-7.69-0.85-15.57-1.33-23.2-0.24c-16.77,2.4-29.33,13.09-34.36,33.48c-4.62,18.72-4.17,37.92,8.58,51.82
			c13.35,14.55,28.88,14.03,44.6,4.55c2.32-1.41,5.85-1.2,8.44-0.24c21.92,8.23,43.38,10,64.09-4.85
			c2.89,11.55,10.9,13.71,32.05,7.68c-0.69-7.75,4.56-18.26-7.66-20.23c-0.88-0.14-1.92-4.14-1.93-6.35
			c-0.06-9.07-0.42-18.24,0.6-27.15c1.53-13.36,9.64-20.06,20.17-18.15c10.59,1.91,12.52,11.83,12.79,22.25
			c0.45,16.9,0.12,33.82,0.12,51c11.52,0,20.69,0,30.8,0c-0.93-8.47,5.02-18.32-6.57-21.01c-1.26-0.28-2.95-3.76-2.89-5.69
			c0.31-11.01-0.28-22.54,2.26-32.8c1.41-5.67,7.86-11.67,12.91-13.25c11.16-3.49,17.98,4.44,18.49,20.44
			c0.55,17.37,0.12,34.79,0.12,54.03c24.95-4.28,49.02,7.94,70.38-10.91c2.89,18.35,13.29,7.72,22.03,9.56
			c0-10.31-0.38-19.3,0.1-28.22c0.55-10.46,0.66-21.31,3.12-31.16c3.09-12.37,11.71-16.32,21.67-13.8
			c9.81,2.46,12.48,11.7,12.4,22.76c-0.12,17.55-5.86,24.62-26.08,31.84c0,5.61,0,11.4,0,17.22c1.62,0.76,2.71,1.72,3.82,1.72
			c20.39,0.19,40.8,0.28,61.2,0.33c10.93,0.03,21.14-1.96,25.7-16.92C-1942.6,3120.16-1927.45,3122.38-1905.93,3107.14z
			 M-1347.2,3076.99c2.22-28.54-6.81-47.57-24.67-54.55c-18.99-7.44-40.01,0.84-47.82,20.91c-4.08,10.49-8.28,17.56-18.72,15.92
			c0,6.24,0,11.55,0,16.73c14.67,2.78,14.67,2.78,16.12,17.94c-21.2,0-42.38,0.82-63.48-0.28c-15-0.77-23.47-14.82-21.07-31.64
			c2.2-15.54,12.49-23.52,26.92-19.57c6.91,1.9,13.42,6.05,20.27,9.26c1.41-25.6-0.87-29.08-19.9-31.15
			c-36.74-4.01-55.02,23.06-45.62,67.5c0.3,1.41,0.16,2.95,0.25,5.04c-14.55,0-28.88,0-44.67,0c0-24.67,0-48.03,0-70.73
			c-11.05,0-20.59,0-30.02,0c-0.75,12.86-0.67,12.73,6.88,20.45c1.32,1.36,2.28,4.22,2.31,6.4c0.19,14.48,0.1,28.97,0.1,43.81
			c-17.31,0-33.25,0-50.19,0c0-24.37,0-47.37,0-71.14c-10.62,0-20.19,0-30.07,0c-1.62,10.76-3.48,20.71,9.01,22.02
			c0,9.43,0.25,17.99-0.06,26.52c-0.63,16.87-7.56,25.95-19.02,25.51c-10.59-0.41-15.55-7.93-15.85-25.16
			c-0.28-16-0.06-32-0.06-48.82c-10.92,0-20.48,0-30.59,0c-1.3,10.52-3.58,20.64,9.25,21.95c0,11.42-0.22,21.99,0.05,32.54
			c0.72,27.91,12.45,41.89,35,40.23c7.83-0.57,15.49-4.69,24.58-7.61c17.14,12.22,52.38,10.31,66.94-4.93
			c12.66,20.42,56.4,16.81,70.14-5.78c26.83,25.78,87.83,25.84,102.72,0.95c7.24,4.77,14.14,12.84,21.5,13.54
			c22.25,2.1,44.73,2.29,67.05,1.01c5.37-0.3,10.44-9.13,15.63-14.04c-0.75-1.8-1.5-3.59-2.25-5.39c-4.33,0-8.65,0.02-12.99,0
			c-17.97-0.06-35.93,0.13-53.88-0.3c-8.61-0.21-16.29-3.16-19.96-17.15C-1383.57,3076.99-1365.72,3076.99-1347.2,3076.99z
			 M-1901.51,2484.14c28.43-5.65,57.78-9.29,86.2-17.63c47.96-14.09,91.46-40.16,126.67-84.15c13.35-16.68,24.35-35.44,27.46-59.47
			c1.96-15.19-1.45-28.6-11.98-37.07c-9.72-7.82-18.76-1.42-26.96,5.81c-3.97,3.51-7.9,7.25-11.25,11.61
			c-12.63,16.46-25.01,33.2-37.49,49.83c-31.37,41.85-67.95,73.7-113.13,88.4c-37.48,12.19-75.58,13.8-114.03,9.07
			c-5.83-0.71-11.95,2.07-17.95,3.24c5.14,4.72,10.27,9.45,15.43,14.14c0.31,0.28,0.75,0.39,1.15,0.47
			C-1952.51,2473.57-1927.63,2478.72-1901.51,2484.14z M-1960.95,2534.8c-0.45,1.66-0.91,3.3-1.36,4.96c2.1,2.46,3.85,6,6.36,7.2
			c32.17,15.51,66.07,22.48,100.1,23.72c21.49,0.79,43.58-5.13,64.66-11.66c21.23-6.57,42.36-15.53,62.04-27.28
			c17.68-10.57,36.98-22.3,43.74-47.84c2.85-10.76,3.63-26.79-0.97-35.05c-6.61-11.86-18.06-3.29-26.3,2.89
			c-20.21,15.13-40.04,31.07-59.97,46.77c-48.95,38.57-102.33,49.81-159.26,39.94C-1941.55,2536.81-1951.26,2536-1960.95,2534.8z
			 M-2486,3073.31c-0.87,26.03,11.97,42.22,33.76,43.51c23.63,1.41,39.29-13.69,40.26-40.46c0.82-22.6,0.24-45.28,0.27-67.92
			c0.01-11.86,0-23.72,0-35.58c-13.11,0-24.35,0-35.66,0c0,7.61,0,14.28,0,21.05c4.93,0.82,8.92,1.48,13.75,2.29
			c0,27.28,0.58,54.38-0.25,81.42c-0.4,12.95-9.21,20.47-19.09,15.67c-6.46-3.14-11.08-12.1-17.83-19.96
			C-2474.08,3073.31-2480.06,3073.31-2486,3073.31z M-1767.24,2996.42c0,27.48,0.52,54.55-0.45,81.56c-0.2,5.4-5.5,13.74-9.54,14.91
			c-5.41,1.56-12.63-1.06-17.68-4.77c-3.36-2.46-4.27-10-6.09-14.74c-6.57,0-12.54,0-18.46,0c-1.06,24.32,10.11,40.24,29.72,43.29
			c22.88,3.55,42.03-9.41,43.29-33.72c1.87-36.36,0.49-72.99,0.49-109.83c-12.36,0-23.9,0-35.5,0c0,7.49,0,13.88,0,20.86
			C-1776.65,2994.83-1772.36,2995.55-1767.24,2996.42z M-1966.05,2786.49c1.66,4.38,2.44,8.17,4.26,10.95
			c13.59,20.96,49.77,35.65,69.99,26.95c5.34-2.29,12.3-10.44,12.61-16.39c0.61-11.53-7.81-15.35-16.33-14.51
			c-21.83,2.13-43.68,5.5-64.27-7.9C-1960.94,2784.84-1962.86,2785.96-1966.05,2786.49z M-1914.6,2889.2
			c0.38-0.98,0.73-1.96,1.11-2.94c1.21,0,2.46,0.25,3.63-0.05c7.08-1.77,15.6-2.16,15.12-14.85c-0.52-13.63-9.13-11.02-16.3-11.17
			c-8.43-0.17-16.84-0.98-25.27-1.03c-2.85-0.02-5.7,1.5-8.55,2.31c0.88,3.59,0.88,9.05,2.82,10.44
			C-1933.19,2878.3-1923.79,2883.54-1914.6,2889.2z M-2425.95,2920.88c-8.25,1.3-14.31,6.41-14.46,17.93
			c-0.14,10.5,4.65,17.28,13.24,17.99c9.13,0.74,14.94-5.32,15.55-16.62C-2410.99,2928.68-2416.66,2922.85-2425.95,2920.88z
			 M-1745.04,2939.14c-0.85-11.5-6.1-17.83-15.09-17.56c-8.43,0.25-13.77,6.81-13.86,17.31c-0.1,11.17,5.01,18.04,14.34,18.07
			C-1750.33,2956.98-1745.71,2950.27-1745.04,2939.14z M-1566.4,2988.15c-1.21-10.36-5.85-17.48-15.07-17.18
			c-8.46,0.27-13.81,6.63-13.9,17.29c-0.09,10.57,4.77,17.09,13.5,17.59C-1572.5,3006.4-1567.71,2999.9-1566.4,2988.15z
			 M-1902.11,2935.44c3.85-1.26,7.69-1.22,9.9-3.55c3.22-3.44,5.28-8.58,7.83-12.98c-4.33-2.13-8.58-5.61-13-6.02
			c-4.6-0.43-9.42,1.93-14.07,3.47c-2.46,0.82-4.72,2.51-7.06,3.81c1.48,3.25,2.37,7.66,4.6,9.49
			C-1910.32,2932.53-1905.84,2933.7-1902.11,2935.44z"/>
		<path class="st8" d="M863.66,327.73c-2.89,6.08-5.55,13.99-9.82,20.2c-18.19,26.39-41.88,34.92-69.27,31.6
			c-12.13-1.47-24.43-2.37-36.58-1.6c-10.39,0.66-20.6,4.71-23.42,19.73c-2.01,10.71,6.25,25.68,17.68,31.3
			c19.77,9.75,40.32,12.54,61.15,6.14c27.53-8.45,51.62-24.67,70.74-50.97c24.91-34.24,20.59-73.54-12.04-95.76
			c-13.27-9.03-28.7-15.6-43.68-17.96c-43.67-6.84-86.42-0.68-126.63,23.11c-27.23,16.11-49.01,39.86-62.98,73.41
			c-29.66,71.25-1.15,145.4,63.09,155.18c101.12,15.4,185.91-26.42,252.49-122.42c4.2-6.05,6.63-13.96,10.8-20.04
			c2.14-3.13,6.33-4.11,9.58-6.07c0.96,4.47,3.78,10.01,2.56,13.24c-5.17,13.63-10.66,27.34-17.61,39.66
			c-43.01,76.35-102.71,122.64-175.1,144.52c-44.37,13.41-89.32,18.4-134.65,6.59c-3.19-0.84-6.34-1.88-9.49-2.91
			c-85.82-28.24-92.44-116.12-65.62-183.81c16.62-41.97,43.43-72.83,74.89-97.47c52.23-40.92,109.49-61.74,171.41-60.26
			c29.89,0.71,59.12,7.99,86.38,24.07c47.3,27.91,56.91,82.62,23.6,132.85c-38.81,58.53-123.07,90.15-181.8,68.17
			c-3.9-1.45-7.74-3.24-11.47-5.23c-20.72-11.09-34.42-29.35-35.18-58.23c-0.76-28.59,11.1-48.71,31.19-61.69
			c26.69-17.22,55.16-20.07,84.47-15.08C826.32,321.07,844.27,324.3,863.66,327.73z"/>
		<path class="st9" d="M744.07,1296.14c-21.52,15.24-36.67,13.03-56.16-8.47c-4.56,14.96-14.77,16.95-25.7,16.92
			c-20.39-0.05-40.8-0.16-61.2-0.33c-1.11-0.02-2.2-0.96-3.82-1.72c0-5.81,0-11.59,0-17.22c20.21-7.2,25.96-14.28,26.08-31.84
			c0.07-11.06-2.59-20.3-12.4-22.76c-9.96-2.51-18.58,1.45-21.67,13.8c-2.46,9.86-2.56,20.71-3.12,31.16
			c-0.48,8.92-0.1,17.91-0.1,28.22c-8.76-1.82-19.14,8.8-22.03-9.56c-21.35,18.86-45.42,6.63-70.38,10.91
			c0-19.24,0.43-36.66-0.12-54.03c-0.51-16-7.33-23.93-18.49-20.44c-5.05,1.58-11.5,7.58-12.91,13.25
			c-2.55,10.28-1.95,21.8-2.26,32.8c-0.06,1.93,1.63,5.4,2.89,5.69c11.59,2.69,5.65,12.54,6.57,21.01c-10.11,0-19.29,0-30.8,0
			c0-17.17,0.33-34.1-0.12-51c-0.27-10.44-2.22-20.36-12.79-22.25c-10.53-1.9-18.63,4.8-20.17,18.15c-1.02,8.91-0.66,18.1-0.6,27.15
			c0.02,2.21,1.05,6.21,1.93,6.35c12.22,1.97,6.96,12.48,7.66,20.23c-21.14,6.03-29.15,3.87-32.05-7.68
			c-20.71,14.85-42.18,13.08-64.09,4.85c-2.59-0.98-6.12-1.17-8.44,0.24c-15.72,9.48-31.27,10-44.6-4.55
			c-12.75-13.9-13.2-33.1-8.58-51.82c5.04-20.39,17.59-31.08,34.36-33.48c7.63-1.09,15.51-0.63,23.2,0.24
			c18.21,2.04,18.6,2.94,16.92,26.03c-10.65-1.86-21.29-4.98-31.97-5.26c-15.78-0.43-24.95,13.16-23.36,32.3
			c0.97,11.74,5.17,20.47,15.52,21.51c10.35,1.03,17.31-5.34,20-17.59c1.36-6.18,1.33-12.81,2.01-20.14c6.48,0,12.76,0,20.35,0
			c0,11.78,0,23.12,0,35.41c16.95,0,32.59,0,49.64,0c0-15.12,0.09-29.58-0.1-44.03c-0.03-2.18-1.24-6.1-2.2-6.24
			c-12.72-1.96-6.28-12.76-7.72-23.99c11.23,2.89,20.71,5.32,32.11,8.24c14.71-11.18,31.34-11.06,45.86,2.2
			c11.31-3.36,21.28-8.31,31.42-8.94c20.26-1.26,31.01,11.86,32.24,37.04c0.55,11.47,0.09,23,0.09,35.58c16.77,0,32.44,0,49.82,0
			c0-31.53,0.03-63.07-0.09-94.62c0-1.64-1.21-4.66-2.02-4.74c-11.82-1.22-6.48-11.96-7.75-20.55c10.09,0,19.65,0,30.62,0
			c0,17.47,0,35.35,0,54.85c18.81-9.81,36.92-14.78,50.82,4.9c12.69,17.96,10.65,39-0.16,60.13c17.32,0,33.28,0,49.2,0
			c0.33-1.23,0.9-2.18,0.76-2.94c-3.97-22.57-2.73-43.86,13.33-58.88c17.7-16.55,38-13.28,57.42-6.3c3.7,1.33,4.86,13.44,7.89,22.71
			c-13.62-2.5-23.81-5.5-34.07-5.97c-17.56-0.81-26.3,11.78-24.79,33.23c0.82,11.51,5.2,19.32,14.74,20.55
			c9.57,1.23,16.92-3.85,19.89-15.56c1.69-6.65,2.05-13.82,3.18-21.92c5.58,0,11.46,0,19.47,0c0,5.32,0,11.1,0,16.88
			c0,5.89,0,11.8,0,19.33c10.33,0,19.09,0,28.09,0C787.36,1306.44,764.16,1312.14,744.07,1296.14z"/>
		<path class="st9" d="M1302.8,1265.99c-18.51,0-36.37,0-56.19,0c3.67,13.98,11.34,16.95,19.96,17.15
			c17.95,0.43,35.92,0.24,53.88,0.3c4.33,0.02,8.65,0,12.99,0c0.75,1.8,1.5,3.59,2.25,5.39c-5.2,4.91-10.26,13.73-15.63,14.04
			c-22.31,1.26-44.78,1.09-67.05-1.01c-7.36-0.69-14.26-8.75-21.5-13.54c-14.89,24.89-75.9,24.83-102.72-0.95
			c-13.74,22.59-57.48,26.2-70.14,5.78c-14.56,15.24-49.8,17.15-66.94,4.93c-9.09,2.94-16.75,7.04-24.58,7.61
			c-22.57,1.66-34.28-12.32-35-40.23c-0.27-10.55-0.04-21.1-0.04-32.54c-12.84-1.33-10.54-11.45-9.25-21.95c10.09,0,19.66,0,30.59,0
			c0,16.84-0.22,32.84,0.06,48.82c0.3,17.23,5.26,24.75,15.85,25.16c11.46,0.44,18.4-8.64,19.02-25.51
			c0.31-8.53,0.06-17.11,0.06-26.52c-12.48-1.31-10.63-11.25-9.01-22.02c9.88,0,19.47,0,30.07,0c0,23.77,0,46.77,0,71.14
			c16.95,0,32.89,0,50.19,0c0-14.86,0.09-29.35-0.1-43.81c-0.03-2.18-0.97-5.04-2.31-6.4c-7.56-7.72-7.63-7.61-6.88-20.45
			c9.43,0,18.99,0,30.02,0c0,22.7,0,46.07,0,70.73c15.81,0,30.14,0,44.67,0c-0.09-2.1,0.05-3.63-0.26-5.04
			c-9.4-44.45,8.88-71.52,45.62-67.5c19.03,2.08,21.31,5.56,19.9,31.15c-6.84-3.21-13.35-7.38-20.27-9.26
			c-14.43-3.95-24.71,4.03-26.92,19.57c-2.38,16.82,6.07,30.86,21.07,31.64c21.1,1.09,42.27,0.28,63.48,0.28
			c-1.45-15.16-1.45-15.16-16.12-17.94c0-5.18,0-10.49,0-16.73c10.42,1.64,14.62-5.43,18.72-15.92
			c7.81-20.07,28.84-28.35,47.82-20.91C1295.98,1218.43,1305.02,1237.45,1302.8,1265.99z M1282.55,1247.6
			c-2.56-15.68-10.39-19.65-19.97-18.7c-8.5,0.84-15.28,5.5-15.63,18.7C1258.8,1247.6,1269.97,1247.6,1282.55,1247.6z"/>
		<path class="st10" d="M748.49,673.14c-26.12-5.42-51-10.57-75.88-15.73c-0.4-0.08-0.84-0.19-1.15-0.47
			c-5.16-4.69-10.29-9.43-15.43-14.14c5.98-1.17,12.12-3.95,17.95-3.24c38.47,4.72,76.56,3.13,114.03-9.07
			c45.18-14.7,81.76-46.55,113.13-88.4c12.48-16.65,24.86-33.39,37.49-49.83c3.34-4.36,7.29-8.1,11.25-11.61
			c8.19-7.23,17.23-13.63,26.96-5.81c10.54,8.48,13.95,21.88,11.98,37.07c-3.1,24.02-14.11,42.79-27.46,59.47
			c-35.21,43.99-78.72,70.06-126.67,84.15C806.27,663.86,776.94,667.48,748.49,673.14z"/>
		<path class="st11" d="M689.05,723.8c9.67,1.2,19.39,2.01,29.02,3.68c56.93,9.87,110.31-1.37,159.26-39.94
			c19.93-15.7,39.76-31.64,59.97-46.77c8.25-6.18,19.71-14.77,26.3-2.89c4.6,8.26,3.81,24.29,0.97,35.05
			c-6.75,25.54-26.06,37.27-43.74,47.84c-19.68,11.75-40.8,20.71-62.04,27.28c-21.08,6.52-43.19,12.45-64.66,11.66
			c-34.03-1.25-67.93-8.21-100.1-23.72c-2.49-1.2-4.26-4.75-6.36-7.2C688.15,727.1,688.6,725.45,689.05,723.8z"/>
		<path class="st12" d="M692.44,836.05c8.5,1,16.98,2.61,25.49,3.06c51.03,2.67,98.12-7.34,140.08-33.85
			c17.52-13.05,34.75-25.59,52.52-38.16c7.24-5.13,17.31-12.26,23.11-2.4c4.05,6.85,3.36,20.17,0.85,29.11
			c-5.94,21.2-22.88,30.96-38.42,39.72c-17.28,9.76-35.86,17.2-54.5,22.65c-18.52,5.42-37.94,10.33-56.81,9.68
			c-29.89-1.04-59.68-6.82-87.94-19.71c-2.19-1-3.73-3.95-5.58-5.99C691.64,838.8,692.05,837.43,692.44,836.05z"/>
		<path class="st9" d="M164,1262.31c5.94,0,11.92,0,15.21,0c6.75,7.88,11.37,16.82,17.83,19.96c9.88,4.8,18.7-2.7,19.09-15.67
			c0.84-27.04,0.25-54.14,0.25-81.42c-4.83-0.81-8.82-1.47-13.75-2.29c0-6.78,0-13.44,0-21.05c11.31,0,22.55,0,35.66,0
			c0,11.86,0.02,23.72,0,35.58c-0.03,22.65,0.55,45.33-0.27,67.92c-0.97,26.77-16.63,41.87-40.26,40.46
			C175.97,1304.53,163.13,1288.34,164,1262.31z"/>
		<path class="st9" d="M882.76,1185.42c-5.11-0.87-9.4-1.61-14.22-2.42c0-6.98,0-13.38,0-20.86c11.59,0,23.14,0,35.5,0
			c0,36.85,1.39,73.46-0.49,109.83c-1.26,24.31-20.41,37.27-43.29,33.72c-19.62-3.05-30.77-18.97-29.72-43.29
			c5.92,0,11.91,0,18.46,0c1.81,4.74,2.73,12.27,6.09,14.74c5.05,3.71,12.27,6.32,17.68,4.77c4.05-1.17,9.34-9.51,9.54-14.91
			C883.28,1239.99,882.76,1212.9,882.76,1185.42z"/>
		<path class="st13" d="M683.95,975.49c3.21-0.52,5.11-1.64,6.24-0.92c20.59,13.39,42.44,10.03,64.27,7.9
			c8.53-0.84,16.96,2.99,16.33,14.51c-0.31,5.94-7.29,14.09-12.61,16.39c-20.2,8.7-56.4-5.99-69.99-26.95
			C686.39,983.65,685.61,979.86,683.95,975.49z"/>
		<path class="st13" d="M735.4,1078.2c-9.21-5.65-18.6-10.88-27.46-17.26c-1.92-1.39-1.92-6.85-2.82-10.44
			c2.85-0.81,5.7-2.32,8.55-2.31c8.43,0.03,16.84,0.85,25.27,1.03c7.17,0.14,15.78-2.46,16.3,11.17
			c0.49,12.68-8.02,13.08-15.12,14.85c-1.17,0.28-2.41,0.05-3.63,0.05C736.14,1076.24,735.78,1077.22,735.4,1078.2z"/>
		<path class="st9" d="M224.05,1109.88c9.3,1.97,14.97,7.8,14.34,19.28c-0.61,11.31-6.42,17.36-15.55,16.62
			c-8.59-0.69-13.38-7.47-13.24-17.99C209.75,1116.28,215.8,1111.17,224.05,1109.88z"/>
		<path class="st9" d="M904.96,1128.14c-0.69,11.15-5.31,17.86-14.61,17.82c-9.33-0.03-14.43-6.9-14.34-18.07
			c0.09-10.5,5.43-17.06,13.86-17.31C898.88,1110.29,904.11,1116.64,904.96,1128.14z"/>
		<path class="st9" d="M1083.6,1177.15c-1.3,11.75-6.1,18.24-15.48,17.71c-8.74-0.51-13.59-7.03-13.5-17.59
			c0.09-10.68,5.46-17.03,13.9-17.29C1077.75,1159.66,1082.38,1166.79,1083.6,1177.15z"/>
		<path class="st13" d="M747.89,1124.44c-3.73-1.72-8.22-2.91-11.8-5.8c-2.25-1.82-3.12-6.24-4.6-9.49c2.35-1.3,4.62-2.99,7.06-3.81
			c4.63-1.55,9.46-3.89,14.07-3.47c4.42,0.41,8.68,3.89,13,6.02c-2.55,4.41-4.6,9.54-7.83,12.98
			C755.6,1123.22,751.75,1123.18,747.89,1124.44z"/>
		<path class="st7" d="M1282.55,1247.6c-12.58,0-23.75,0-35.6,0c0.34-13.2,7.12-17.88,15.63-18.7
			C1272.16,1227.96,1279.99,1231.92,1282.55,1247.6z"/>
		<path class="st14" d="M689.63,906.45c4.66-0.52,7.45-1.64,9.1-0.92c30.02,13.39,61.87,10.03,93.71,7.9
			c12.43-0.84,34.45-16.24,48.39,1.01c9.81,12.13,3.72,36.82-24.53,33.36c-29.47,8.7-100.65-9.45-120.46-30.42
			C693.22,914.6,692.06,910.82,689.63,906.45z"/>
	</g>
</g>
</svg>
