<?xml version="1.0" encoding="utf-8"?>
<!-- Generator: Adobe Illustrator 28.0.0, SVG Export Plug-In . SVG Version: 6.00 Build 0)  -->
<svg version="1.1" id="Icon" xmlns="http://www.w3.org/2000/svg" xmlns:xlink="http://www.w3.org/1999/xlink" x="0px" y="0px"
	 viewBox="0 0 1500 1500" style="enable-background:new 0 0 1500 1500;" xml:space="preserve">
<style type="text/css">
	.st0{fill:none;stroke:#F2BE22;stroke-width:106;stroke-linecap:round;stroke-linejoin:round;stroke-miterlimit:10;}
	.st1{fill:#EE3CAF;}
	.st2{fill:none;stroke:#8856F2;stroke-width:106;stroke-linecap:round;stroke-linejoin:round;stroke-miterlimit:10;}
	.st3{fill:#F2BE22;}
	.st4{fill:#8856F2;}
	.st5{fill:#45F46A;}
	.st6{fill:none;stroke:#EE3CAF;stroke-width:106;stroke-linecap:round;stroke-linejoin:round;stroke-miterlimit:10;}
	.st7{fill:#D71920;}
</style>
<g id="Icon_10_-_Microphone">
	<path class="st0" d="M7018.99,2404.15c-57,34.8-123.99,54.85-195.66,54.85c-71.67,0-138.66-20.05-195.66-54.85"/>
	<line class="st0" x1="6823.33" y1="2779" x2="6823.33" y2="2459"/>
	<path class="st1" d="M6823.83,2359L6823.83,2359c-88.64,0-160.5-71.86-160.5-160.5v-277c0-88.64,71.86-160.5,160.5-160.5h0
		c88.64,0,160.5,71.86,160.5,160.5v277C6984.33,2287.14,6912.47,2359,6823.83,2359z"/>
	<line class="st2" x1="6824.33" y1="1976" x2="7038.33" y2="1976"/>
	<line class="st2" x1="6824.33" y1="2135" x2="7038.33" y2="2135"/>
</g>
<g id="Icon_09_-_Arrow">
	<path class="st3" d="M5627.58,1894.9l-275.76,0.11c-19.97,0.01-39.12,7.95-53.24,22.08l-0.76,0.76
		c-29.4,29.42-29.38,77.1,0.04,106.5l108.88,108.79l42-42.03c18.57-18.59,18.56-48.71-0.03-67.28l-21.87-21.85l201.66-0.08
		c29.85-0.01,53.98-24.47,53.47-54.43C5681.47,1918.13,5656.92,1894.89,5627.58,1894.9z"/>
	<path class="st1" d="M5684.89,1951.82l0.37,275.66c0.03,19.97-7.88,39.14-21.98,53.28c-0.25,0.25-0.51,0.51-0.76,0.76
		c-29.37,29.45-77.05,29.51-106.5,0.14c-36.29-36.26-72.58-73.64-108.87-109.91c12.56-12.81,25.14-25.6,37.75-38.35
		c1.55-1.57,3.1-3.14,4.65-4.7c17.54-17.72,46.12-17.88,63.89-0.39c8.16,8.03,16.31,16.06,24.47,24.09
		c0.09,0.09,0.25,0.03,0.25-0.11l-0.27-201.3c-0.04-29.18,23.29-52.94,52.33-53.55C5660.35,1896.78,5684.85,1921.69,5684.89,1951.82
		z"/>
	<path class="st3" d="M5515.76,2095.58"/>
	<path class="st1" d="M4950.41,2513.96L4950.41,2513.96c-20.89-20.89-20.89-54.76,0-75.65l456.28-457.28l42.82,42.82
		c18.13,18.13,18.13,47.53,0,65.67l-423.45,424.45C5005.17,2534.85,4971.3,2534.85,4950.41,2513.96z"/>
	<path class="st4" d="M5065.89,2629.43L5065.89,2629.43c20.89,20.89,54.76,20.89,75.65,0l456.28-457.28l-43.05-43.05
		c-18.01-18.01-47.21-18.01-65.21,0l-423.68,424.68C5045,2574.67,5045,2608.54,5065.89,2629.43z"/>
</g>
<g id="Icon_08_-_Shopping_Cart">
	<circle class="st5" cx="3991.49" cy="2633.48" r="78.34"/>
	<circle class="st5" cx="3669.49" cy="2633.48" r="78.34"/>
	<path class="st3" d="M4205.67,2475.37c1.64-30.62-23.46-56.08-54.12-56.08h-583.82c-2.68,0-4.85-2.17-4.85-4.85v-450.76
		c0-44.34-35.94-80.28-80.28-80.28h-108.67c-29.32,0-53.49,23.55-53.86,52.5c-0.18,14.11,5.08,27.42,14.83,37.56
		c10.23,10.64,24.55,16.35,39.3,16.35h77.41c2.68,0,4.85,2.18,4.85,4.86l-0.46,459.31c-0.04,39.39,31.87,71.35,71.26,71.37
		l625.28,0.35C4180.91,2525.7,4204.17,2503.38,4205.67,2475.37z"/>
	<path class="st2" d="M3669.79,1977.87v296.96c0,21.73,17.61,39.34,39.34,39.34h440.8l110-376l-551.09,0.35
		C3687.23,1938.69,3669.79,1956.26,3669.79,1977.87z"/>
	<path class="st5" d="M3989.24,2367.18h-112.55c-54.99,0-99.57-44.58-99.57-99.57v-339.86c0-54.99,44.58-99.57,99.57-99.57h112.55
		c54.99,0,99.57,44.58,99.57,99.57v339.86C4088.81,2322.6,4044.23,2367.18,3989.24,2367.18z"/>
</g>
<g id="Icon_07_-_Pencil">
	<line class="st6" x1="2504.4" y1="2035.93" x2="2075.32" y2="2464.34"/>
	<line class="st0" x1="2564.54" y1="1975.8" x2="2498.03" y2="2042.3"/>
	<path class="st5" d="M2023.13,2516.86c21.34,21.22,51.91,18.58,58.23,18.97l-52.95,14.19l-52.95,14.19l14.19-52.95l14.19-52.95
		C2004.22,2464.56,2001.58,2495.43,2023.13,2516.86z"/>
</g>
<g id="Icon_06_-_Home">
	<polyline class="st6" points="697,2592 429,2592 429,2160 751,1948 1071,2168 	"/>
	<polyline class="st0" points="857,2592 1071,2592 1071,2324 697,2324 697,2592 	"/>
</g>
<g id="Icon_05_-_Magnifying_Glass">
	<circle class="st3" cx="6940.65" cy="642.35" r="214.96"/>
	<path class="st6" d="M7146.44,580.06c5.96,19.72,9.17,40.63,9.17,62.3c0,118.72-96.24,214.96-214.96,214.96
		c-118.72,0-214.96-96.24-214.96-214.96s96.24-214.96,214.96-214.96c22.03,0,43.28,3.31,63.29,9.47"/>
	<line class="st2" x1="6789.32" y1="793.68" x2="6510.39" y2="1072.61"/>
</g>
<g id="Icon_04_-_File">
	<path class="st1" d="M5417.84,535.33c-29.74,0-53.85,24.11-53.85,53.85v0c0,29.74,24.11,53.85,53.85,53.85h160.15v321h-160.2
		c-29.71,0-53.8,24.09-53.8,53.8v0c0,29.71,24.09,53.8,53.8,53.8l185.57,0c45.08,0,81.63-36.55,81.63-81.63V616.96
		c0-45.08-36.55-81.63-81.63-81.63H5417.84z"/>
	<path class="st3" d="M5417.15,964.03h-375.16v-428l245.59-0.75l91.25,91.25c20.89,20.89,54.77,20.89,75.66,0v0
		c20.89-20.89,20.89-54.77,0-75.66l-103.7-104.85c-11.39-11.51-26.91-17.99-43.11-17.99h-303.15c-38.4,0-69.53,31.14-69.52,69.54
		l0.12,504.89c0.01,38.41,31.17,69.54,69.58,69.51l412.44-0.26c29.73,0,53.84-24.1,53.84-53.84v0
		C5470.99,988.13,5446.89,964.03,5417.15,964.03z"/>
</g>
<g id="Icon_03_-_Bell">
	<path class="st0" d="M3790.5,428.72c-207.66,0-376,168.34-376,376v109.56l-64,103.71h443.09v107.71"/>
	<path class="st2" d="M3950.5,1017.9h279l-63-106.34V804.72c0-161.26-101.52-298.81-244.13-352.23"/>
	<circle class="st5" cx="3790" cy="1178.91" r="78.34"/>
</g>
<g id="Icon_02_-_Image">
	<path class="st4" d="M2590.85,1071.06h-636.2c-61.25,0-110.9-49.65-110.9-110.9V539.84c0-61.25,49.65-110.9,110.9-110.9h636.2
		c61.25,0,110.9,49.65,110.9,110.9v420.32C2701.75,1021.41,2652.1,1071.06,2590.85,1071.06z"/>
	<g>
		<path class="st5" d="M2166.23,1010.28c-19.3,0-37.44-7.52-51.09-21.17l-164.27-164.32l-143.97,140.65
			c-21.14,20.65-55.01,20.25-75.66-0.88l0,0c-20.65-21.14-20.25-55.01,0.88-75.66l169.4-165.49c13.36-13.05,30.97-20.23,49.64-20.23
			c0.14,0,0.29,0,0.43,0c18.82,0.11,36.52,7.5,49.83,20.82l164.78,164.83l270.74-271.58c13.43-13.47,31.3-20.89,50.32-20.89
			s36.89,7.42,50.31,20.89l270.8,271.65c20.86,20.93,20.81,54.8-0.12,75.66l0,0c-20.93,20.86-54.8,20.81-75.66-0.12l-245.34-246.1
			l-269.86,270.7c-13.64,13.68-31.79,21.22-51.11,21.24C2166.27,1010.28,2166.25,1010.28,2166.23,1010.28z"/>
	</g>
	<circle class="st3" cx="2005.25" cy="589.56" r="53.5"/>
</g>
<g id="Icon_01_-_Camera">
	<path class="st7" d="M447.47,515.93c1.97,0,3.63,0,5.29,0c33.75,0,67.51-0.02,101.25,0.03c3.68,0.01,7.42,0.21,11.04,0.87
		c13.82,2.52,24.72,10.2,33.59,21.55c12.32,15.76,18.68,34.36,23.16,53.83c4.65,20.2,6.6,40.77,7.57,61.53
		c0.82,17.49,0.58,34.94-0.46,52.38c-1.43,23.83-4.61,47.41-12,70.08c-5.22,16.02-12.4,30.93-24.23,42.81
		c-1,1.01-2.04,1.99-3.15,2.86c-10.29,8.02-21.52,12.84-34.62,12.68c-23.12-0.3-46.24-0.08-69.35-0.08c-1.81,0-3.63,0-6.08,0
		c-0.22,10.93-0.08,21.31-0.11,31.69c-0.02,10.45-0.01,20.91-0.01,31.36c0,10.45,0,20.91,0,31.36c0,10.45,0,20.91,0,31.36
		s0,20.91,0,31.36s0,20.91,0,31.36c0,10.41,0,20.84,0,31.13c-3.89,1.13-26.37,1.35-31.87,0.37
		C447.47,875.26,447.47,696.03,447.47,515.93z M479.63,773.96c1.43,0.17,2.47,0.41,3.52,0.41c21.11,0.01,42.21,0.18,63.31-0.05
		c18.6-0.21,31.18-10.49,39.27-27.62c7.37-15.6,9.84-32.5,11.17-49.64c1.13-14.66,1.12-29.35,0-44.02
		c-1.23-15.99-3.66-31.7-9.85-46.54c-7.81-18.71-23.3-31.28-43.08-31.05c-19.71,0.23-39.43,0.05-59.16,0.06
		c-1.64,0-3.28,0.19-5.19,0.31C479.63,642.01,479.63,707.72,479.63,773.96z"/>
	<path class="st7" d="M430.03,677.74c-10.79,0-21.07,0-31.8,0c-0.57-4.2-1.2-8.34-1.71-12.49c-2.46-20.32-6.99-40.06-15.05-58.77
		c-4.71-10.93-10.8-21.02-19.17-29.12c-12.25-11.85-26.69-17.54-43.35-13.56c-10.21,2.44-19.07,7.85-26.5,15.91
		c-14.84,16.12-23.02,36.02-29.44,56.97c-7.4,24.15-11.41,49.02-14.14,74.19c-3.5,32.18-4.18,64.48-3.27,96.81
		c0.78,27.42,2.87,54.74,7.3,81.79c3.95,24.16,9.32,47.96,19.26,70.25c6.89,15.47,15.5,29.63,29.26,39.57
		c9.17,6.63,19.21,9.29,30.1,8.83c15-0.62,26.07-9.02,34.99-20.94c13.5-18.07,20.21-39.36,25.18-61.4
		c3.98-17.64,6.36-35.56,7.58-53.65c0.42-6.31,0.85-12.61,1.3-19.19c10.55,0,20.82,0,31.31,0c0,4.81,0.31,9.5-0.06,14.13
		c-0.93,11.7-2.02,23.39-3.32,35.05c-2.5,22.39-6.5,44.45-12.49,66.1c-4.43,16-9.9,31.57-17.48,46.2
		c-8.23,15.87-18.31,30.03-32.62,40.59c-14.21,10.49-29.74,14.16-46.73,12.53c-7.59-0.72-14.86-2.62-21.75-6.04
		c-9.43-4.67-17.52-11.32-24.71-19.3c-17.76-19.74-28.01-43.89-36.21-69.19c-7.27-22.42-12.01-45.54-15.47-68.92
		c-2.88-19.5-4.77-39.12-6.09-58.83c-1.86-27.88-2.27-55.79-1.43-83.69c0.52-17.28,1.92-34.52,3.25-51.76
		c1.54-20.17,4.55-40.14,8.45-59.95c3.49-17.73,7.86-35.21,13.59-52.29c5.53-16.5,12.24-32.41,21.13-47.19
		c5.9-9.78,12.69-18.79,20.91-26.62c8.61-8.2,18.26-14.47,29.26-17.98c14.26-4.54,28.74-4.24,42.58,1.54
		c11.53,4.8,21.68,12.16,30.19,21.96c9.15,10.56,16.46,22.4,22.26,35.24c12.41,27.51,18.98,56.77,22.49,86.89
		c0.89,7.61,1.62,15.24,2.4,22.86C430.12,675.22,430.03,676.19,430.03,677.74z"/>
	<path class="st7" d="M786.72,879.13c-44.55,0-88.54,0-132.94,0c-0.14,2.6-0.39,4.67-0.36,6.74c0.37,19.27,1.53,38.47,5.47,57.36
		c3.31,15.88,7.96,31.25,16.87,44.67c9.28,13.97,21.52,22.26,38.46,19.9c6.4-0.89,11.96-3.65,16.85-8.28
		c7.72-7.29,12.4-16.54,16-26.52c4.26-11.79,6.54-24.1,8.07-36.58c0.15-1.26,0.43-2.51,0.69-4.02c9.23,0,18.23,0,27.5,0
		c0,2.57,0.24,4.97-0.03,7.31c-2.34,20.09-5.7,39.96-11.77,59.23c-5.16,16.37-11.85,31.94-22.77,44.93
		c-17.54,20.86-40.91,26.5-64.75,14.55c-7.18-3.6-13.37-9.15-18.7-15.67c-13.33-16.28-20.91-35.6-26.67-55.87
		c-7.25-25.57-11.3-51.78-13.03-78.35c-1.26-19.36-2.48-38.78-2.37-58.16c0.21-35.49,3.94-70.65,12.87-104.99
		c5-19.25,11.65-37.84,21.82-54.78c6.59-10.98,14.62-20.56,25.03-27.71c14.44-9.92,35.82-8.9,49.77,1.64
		c14,10.57,22.4,25.38,29.13,41.45c10,23.88,15.29,49.15,19.06,74.86c4.53,30.88,6.15,61.96,6.1,93.16
		C787.01,875.39,786.86,876.82,786.72,879.13z M654.19,822.52c6.19,1.12,98.38,0.79,101.98-0.41c0-1.66,0.06-3.44-0.01-5.2
		c-0.8-19.48-3.47-38.63-9.34-57.14c-4.8-15.11-11.18-29.24-22.86-40.1c-10.24-9.52-26.21-10.84-37.76-0.85
		c-8.9,7.71-14.63,17.88-19.01,29.03c-7.85,19.95-11.16,40.95-12.95,62.29C653.9,814.14,654.19,818.22,654.19,822.52z"/>
	<path class="st7" d="M1291.95,879.08c-44.77,0-88.77,0-133.16,0c-0.13,2.45-0.36,4.36-0.32,6.28c0.24,18.95,1.37,37.81,5.12,56.41
		c3.27,16.22,7.88,31.93,16.88,45.71c9.29,14.22,21.56,22.66,38.69,20.35c6.42-0.87,11.97-3.67,16.86-8.27
		c7.85-7.39,12.59-16.82,16.18-26.98c4.13-11.66,6.44-23.79,7.89-36.13c0.15-1.27,0.44-2.52,0.72-4.04c9.23,0,18.26,0,27.6,0
		c0.06,0.89,0.27,1.82,0.18,2.72c-2.17,23.78-6.25,47.14-14.03,69.64c-4.73,13.69-10.88,26.58-19.87,37.85
		c-17.42,21.84-41.89,27.92-65.58,15.89c-10.42-5.29-18.48-13.95-25.08-24.04c-6.98-10.65-12.22-22.26-16.36-34.42
		c-8.08-23.75-12.53-48.35-15.44-73.34c-2.81-24.17-4.31-48.44-4.15-72.76c0.22-33.52,3.23-66.77,10.77-99.44
		c3.92-17,8.93-33.61,16.3-49.29c7.62-16.2,17.09-30.85,31.48-41.48c13.91-10.28,36.87-10.05,50.61,0.38
		c14.1,10.7,22.8,25.47,29.55,41.74c11.62,28.02,17.14,57.75,20.8,87.94c3.17,26.27,4.46,52.64,4.36,79.11
		C1291.95,874.64,1291.95,876.4,1291.95,879.08z M1261.09,822.78c0-2.26,0.06-4.18-0.01-6.11c-0.75-19.32-3.44-38.3-9.24-56.66
		c-4.77-15.12-11.17-29.18-22.74-40.19c-10.23-9.74-27.4-10.63-37.79-1.23c-8.38,7.57-14.29,17.02-18.55,27.66
		c-9.12,22.82-12.79,46.86-13.95,71.43c-0.08,1.59-0.01,3.18-0.01,5.1C1193.07,822.78,1226.86,822.78,1261.09,822.78z"/>
	<path class="st7" d="M967.74,665.12c8.65,0,17.36,0,26.47,0c0,20.27,0,40.29,0,60.76c2.05-0.85,2.05-2.37,2.41-3.65
		c2.9-10.51,6.4-20.77,11.11-30.54c5.39-11.18,12.14-21.24,22.01-28.49c8.17-6,17.46-7.94,27.29-7.23
		c15.59,1.12,27.21,9.1,35.8,22.75c9.1,14.47,13.24,30.76,16.21,47.51c3.99,22.55,5.01,45.37,5.02,68.23
		c0.05,84.59,0.02,169.19,0.02,253.78c0,1.94,0,3.87,0,6.35c-9.67,0.77-18.93,0.31-28.7,0.34c0-2.75,0-4.83,0-6.92
		c0-85.09-0.01-170.16,0.01-255.25c0-15.24-0.99-30.34-4.85-45.08c-2.53-9.66-6.14-18.7-12.57-26.38
		c-5.79-6.91-12.79-9.93-21.31-9.36c-7.58,0.52-14.25,3.23-20.16,8.58c-8.35,7.55-13.67,17.06-17.77,27.6
		c-5.98,15.37-8.86,31.52-10.73,47.92c-1.57,13.8-1.92,27.66-1.91,41.54c0.04,70.06,0.02,140.11,0.02,210.18c0,2.1,0,4.19,0,6.15
		c-3.63,1.28-22.73,1.57-28.23,0.55C966.92,1050.87,966.76,670.16,967.74,665.12z"/>
	<path class="st7" d="M1282.18,665.02c11.05,0,21.51,0,32.54,0c8.63,53.16,17.22,106.32,25.89,159.46
		c8.65,53.08,17.17,106.19,26.6,159.24c6.4-35.21,11.69-70.48,17.26-105.71c5.62-35.55,11.09-71.11,16.64-106.67
		c5.51-35.37,11.03-70.73,16.56-106.25c10.23,0,20.03,0,30.33,0c-0.88,5.44-1.66,10.69-2.57,15.9
		c-6.31,35.92-12.69,71.81-18.96,107.72c-7.58,43.45-15.05,86.93-22.64,130.39c-6.28,35.92-12.65,71.81-18.97,107.71
		c-5.95,33.82-11.7,67.68-17.92,101.45c-3.42,18.56-7.4,37.05-14.71,54.45c-2.37,5.62-5.07,11.26-8.53,16.16
		c-10.17,14.38-27.48,16.67-41.81,8.13c-1.6-0.95-2.52-2.13-2.51-4.25c0.06-17.63,0.05-35.27,0.09-52.91c0-0.57,0.27-1.16,0.53-2.14
		c1.46,0.89,2.6,1.6,3.76,2.3c2.14,1.29,4.29,2.55,6.42,3.86c6.34,3.87,12.03,1.78,16.81-2.9c2.85-2.8,5.09-6.54,6.86-10.26
		c3.98-8.34,6.19-17.35,7.82-26.52c3.36-18.9,6.88-37.78,10.17-56.71c0.49-2.8,0.41-5.85-0.09-8.65
		c-5.52-31.09-11.16-62.15-16.8-93.22c-4.76-26.26-9.57-52.5-14.34-78.77c-5.38-29.63-10.73-59.25-16.11-88.88
		c-4.8-26.42-9.61-52.84-14.41-79.26C1287.47,694.32,1284.87,679.92,1282.18,665.02z"/>
	<path class="st7" d="M800.86,665.13c8.89,0,17.59,0,26.76,0c0,20.24,0,40.27,0,60.28c0.33,0.09,0.68,0.18,1.02,0.29
		c0.45-1.19,1.03-2.35,1.35-3.57c2.84-10.71,6.49-21.08,11.3-30.98c5.36-11.01,12.09-20.91,21.84-28.01
		c8.34-6.07,17.78-7.93,27.76-7.1c15.2,1.26,26.61,9.08,35.03,22.39c8.33,13.14,12.57,27.88,15.55,43.13
		c2.75,14.08,4.44,28.32,4.9,42.69c0.45,14.02,0.92,28.06,0.93,42.09c0.09,80.49,0.04,160.99,0.04,241.48c0,2.1,0,4.19,0,6.97
		c-9.6,0.46-18.86,0.23-28.63,0.16c0-2.68,0-4.77,0-6.85c0-85.56,0-171.1-0.01-256.66c0-15.23-1.23-30.31-5.24-45.01
		c-2.68-9.82-6.54-18.93-13.43-26.43c-4.19-4.56-9.09-7.38-14.93-7.89c-9.59-0.85-18.13,1.8-25.6,8.7
		c-8.03,7.4-13.29,16.57-17.28,26.79c-7.1,18.15-10.4,37.21-11.58,56.65c-0.92,15.13-1.3,30.33-1.33,45.49
		c-0.14,65.97-0.05,131.92-0.05,197.89c0,2.23,0,4.48,0,7.06c-9.78,0-18.94,0-28.41,0C800.86,924.76,800.86,795.08,800.86,665.13z"
		/>
	<path class="st7" d="M163.99,516.24c10.9,0,21.15,0,31.95,0c0.08,1.98,0.22,3.87,0.22,5.76c0.01,26.61,0.01,53.23,0.01,79.84
		c0,105.8,0.03,211.59-0.03,317.39c-0.01,22.39-1.4,44.67-5.48,66.7c-2.8,15.11-6.82,29.83-13.45,43.56
		c-6.56,13.58-15.17,25.5-28.38,32.46c-14.49,7.63-29.6,8.24-44.78,2.3c-10.62-4.16-18.43-12.19-24.9-21.76
		c-11.86-17.52-17.34-37.67-21.16-58.45c-3.73-20.23-5.28-40.72-5.58-61.29c-0.19-13.38-0.08-26.77-0.08-40.17
		c0-1.12,0.11-2.26,0.21-3.93c10.45-0.65,20.83-0.23,31.69-0.26c0.09,2.07,0.22,3.8,0.23,5.53c0.04,9.96-0.09,19.92,0.11,29.88
		c0.33,17.14,1.31,34.23,4.49,51.1c1.49,7.87,3.56,15.56,6.94,22.74c4.7,10.01,11.18,18.26,22.32,20.03
		c16.84,2.66,27.3-4.25,34.68-20.15c6-12.92,8.37-26.97,9.29-41.16c1.02-15.78,1.61-31.62,1.63-47.44
		c0.13-125.22,0.06-250.45,0.06-375.67C163.99,520.99,163.99,518.76,163.99,516.24z"/>
</g>
</svg>
