<?xml version="1.0" encoding="utf-8"?>
<!-- Generator: Adobe Illustrator 28.0.0, SVG Export Plug-In . SVG Version: 6.00 Build 0)  -->
<svg version="1.1" id="Icon" xmlns="http://www.w3.org/2000/svg" xmlns:xlink="http://www.w3.org/1999/xlink" x="0px" y="0px"
	 viewBox="0 0 1500 1500" style="enable-background:new 0 0 1500 1500;" xml:space="preserve">
<style type="text/css">
	.st0{fill:none;stroke:#F2BE22;stroke-width:106;stroke-linecap:round;stroke-linejoin:round;stroke-miterlimit:10;}
	.st1{fill:#EE3CAF;}
	.st2{fill:none;stroke:#8856F2;stroke-width:106;stroke-linecap:round;stroke-linejoin:round;stroke-miterlimit:10;}
	.st3{fill:#F2BE22;}
	.st4{fill:#8856F2;}
	.st5{fill:#45F46A;}
	.st6{fill:none;stroke:#EE3CAF;stroke-width:106;stroke-linecap:round;stroke-linejoin:round;stroke-miterlimit:10;}
	.st7{fill:#FFFFFF;}
	.st8{fill:#E70000;}
</style>
<g id="Icon_10_-_Microphone">
	<path class="st0" d="M7018.99,2404.15c-57,34.8-123.99,54.85-195.66,54.85c-71.67,0-138.66-20.05-195.66-54.85"/>
	<line class="st0" x1="6823.33" y1="2779" x2="6823.33" y2="2459"/>
	<path class="st1" d="M6823.83,2359L6823.83,2359c-88.64,0-160.5-71.86-160.5-160.5v-277c0-88.64,71.86-160.5,160.5-160.5h0
		c88.64,0,160.5,71.86,160.5,160.5v277C6984.33,2287.14,6912.47,2359,6823.83,2359z"/>
	<line class="st2" x1="6824.33" y1="1976" x2="7038.33" y2="1976"/>
	<line class="st2" x1="6824.33" y1="2135" x2="7038.33" y2="2135"/>
</g>
<g id="Icon_09_-_Arrow">
	<path class="st3" d="M5627.58,1894.9l-275.76,0.11c-19.97,0.01-39.12,7.95-53.24,22.08l-0.76,0.76
		c-29.4,29.42-29.38,77.1,0.04,106.5l108.88,108.79l42-42.03c18.57-18.59,18.56-48.71-0.03-67.28l-21.87-21.85l201.66-0.08
		c29.85-0.01,53.98-24.47,53.47-54.43C5681.47,1918.13,5656.92,1894.89,5627.58,1894.9z"/>
	<path class="st1" d="M5684.89,1951.82l0.37,275.66c0.03,19.97-7.88,39.14-21.98,53.28c-0.25,0.25-0.51,0.51-0.76,0.76
		c-29.37,29.45-77.05,29.51-106.5,0.14c-36.29-36.26-72.58-73.64-108.87-109.91c12.56-12.81,25.14-25.6,37.75-38.35
		c1.55-1.57,3.1-3.14,4.65-4.7c17.54-17.72,46.12-17.88,63.89-0.39c8.16,8.03,16.31,16.06,24.47,24.09
		c0.09,0.09,0.25,0.03,0.25-0.11l-0.27-201.3c-0.04-29.18,23.29-52.94,52.33-53.55C5660.35,1896.78,5684.85,1921.69,5684.89,1951.82
		z"/>
	<path class="st3" d="M5515.76,2095.58"/>
	<path class="st1" d="M4950.41,2513.96L4950.41,2513.96c-20.89-20.89-20.89-54.76,0-75.65l456.28-457.28l42.82,42.82
		c18.13,18.13,18.13,47.53,0,65.67l-423.45,424.45C5005.17,2534.85,4971.3,2534.85,4950.41,2513.96z"/>
	<path class="st4" d="M5065.89,2629.43L5065.89,2629.43c20.89,20.89,54.76,20.89,75.65,0l456.28-457.28l-43.05-43.05
		c-18.01-18.01-47.21-18.01-65.21,0l-423.68,424.68C5045,2574.67,5045,2608.54,5065.89,2629.43z"/>
</g>
<g id="Icon_08_-_Shopping_Cart">
	<circle class="st5" cx="3991.49" cy="2633.48" r="78.34"/>
	<circle class="st5" cx="3669.49" cy="2633.48" r="78.34"/>
	<path class="st3" d="M4205.67,2475.37c1.64-30.62-23.46-56.08-54.12-56.08h-583.82c-2.68,0-4.85-2.17-4.85-4.85v-450.76
		c0-44.34-35.94-80.28-80.28-80.28h-108.67c-29.32,0-53.49,23.55-53.86,52.5c-0.18,14.11,5.08,27.42,14.83,37.56
		c10.23,10.64,24.55,16.35,39.3,16.35h77.41c2.68,0,4.85,2.18,4.85,4.86l-0.46,459.31c-0.04,39.39,31.87,71.35,71.26,71.37
		l625.28,0.35C4180.91,2525.7,4204.17,2503.38,4205.67,2475.37z"/>
	<path class="st2" d="M3669.79,1977.87v296.96c0,21.73,17.61,39.34,39.34,39.34h440.8l110-376l-551.09,0.35
		C3687.23,1938.69,3669.79,1956.26,3669.79,1977.87z"/>
	<path class="st5" d="M3989.24,2367.18h-112.55c-54.99,0-99.57-44.58-99.57-99.57v-339.86c0-54.99,44.58-99.57,99.57-99.57h112.55
		c54.99,0,99.57,44.58,99.57,99.57v339.86C4088.81,2322.6,4044.23,2367.18,3989.24,2367.18z"/>
</g>
<g id="Icon_07_-_Pencil">
	<line class="st6" x1="2504.4" y1="2035.93" x2="2075.32" y2="2464.34"/>
	<line class="st0" x1="2564.54" y1="1975.8" x2="2498.03" y2="2042.3"/>
	<path class="st5" d="M2023.13,2516.86c21.34,21.22,51.91,18.58,58.23,18.97l-52.95,14.19l-52.95,14.19l14.19-52.95l14.19-52.95
		C2004.22,2464.56,2001.58,2495.43,2023.13,2516.86z"/>
</g>
<g id="Icon_06_-_Home">
	<polyline class="st6" points="697,2592 429,2592 429,2160 751,1948 1071,2168 	"/>
	<polyline class="st0" points="857,2592 1071,2592 1071,2324 697,2324 697,2592 	"/>
</g>
<g id="Icon_05_-_Magnifying_Glass">
	<circle class="st3" cx="6940.65" cy="642.35" r="214.96"/>
	<path class="st6" d="M7146.44,580.06c5.96,19.72,9.17,40.63,9.17,62.3c0,118.72-96.24,214.96-214.96,214.96
		c-118.72,0-214.96-96.24-214.96-214.96s96.24-214.96,214.96-214.96c22.03,0,43.28,3.31,63.29,9.47"/>
	<line class="st2" x1="6789.32" y1="793.68" x2="6510.39" y2="1072.61"/>
</g>
<g id="Icon_04_-_File">
	<path class="st1" d="M5417.84,535.33c-29.74,0-53.85,24.11-53.85,53.85v0c0,29.74,24.11,53.85,53.85,53.85h160.15v321h-160.2
		c-29.71,0-53.8,24.09-53.8,53.8v0c0,29.71,24.09,53.8,53.8,53.8l185.57,0c45.08,0,81.63-36.55,81.63-81.63V616.96
		c0-45.08-36.55-81.63-81.63-81.63H5417.84z"/>
	<path class="st3" d="M5417.15,964.03h-375.16v-428l245.59-0.75l91.25,91.25c20.89,20.89,54.77,20.89,75.66,0v0
		c20.89-20.89,20.89-54.77,0-75.66l-103.7-104.85c-11.39-11.51-26.91-17.99-43.11-17.99h-303.15c-38.4,0-69.53,31.14-69.52,69.54
		l0.12,504.89c0.01,38.41,31.17,69.54,69.58,69.51l412.44-0.26c29.73,0,53.84-24.1,53.84-53.84v0
		C5470.99,988.13,5446.89,964.03,5417.15,964.03z"/>
</g>
<g id="Icon_03_-_Bell">
	<path class="st0" d="M3790.5,428.72c-207.66,0-376,168.34-376,376v109.56l-64,103.71h443.09v107.71"/>
	<path class="st2" d="M3950.5,1017.9h279l-63-106.34V804.72c0-161.26-101.52-298.81-244.13-352.23"/>
	<circle class="st5" cx="3790" cy="1178.91" r="78.34"/>
</g>
<g id="Icon_02_-_Image">
	<path class="st4" d="M2590.85,1071.06h-636.2c-61.25,0-110.9-49.65-110.9-110.9V539.84c0-61.25,49.65-110.9,110.9-110.9h636.2
		c61.25,0,110.9,49.65,110.9,110.9v420.32C2701.75,1021.41,2652.1,1071.06,2590.85,1071.06z"/>
	<g>
		<path class="st5" d="M2166.23,1010.28c-19.3,0-37.44-7.52-51.09-21.17l-164.27-164.32l-143.97,140.65
			c-21.14,20.65-55.01,20.25-75.66-0.88l0,0c-20.65-21.14-20.25-55.01,0.88-75.66l169.4-165.49c13.36-13.05,30.97-20.23,49.64-20.23
			c0.14,0,0.29,0,0.43,0c18.82,0.11,36.52,7.5,49.83,20.82l164.78,164.83l270.74-271.58c13.43-13.47,31.3-20.89,50.32-20.89
			s36.89,7.42,50.31,20.89l270.8,271.65c20.86,20.93,20.81,54.8-0.12,75.66l0,0c-20.93,20.86-54.8,20.81-75.66-0.12l-245.34-246.1
			l-269.86,270.7c-13.64,13.68-31.79,21.22-51.11,21.24C2166.27,1010.28,2166.25,1010.28,2166.23,1010.28z"/>
	</g>
	<circle class="st3" cx="2005.25" cy="589.56" r="53.5"/>
</g>
<g id="Icon_01_-_Camera">
</g>
<g>
	<path class="st7" d="M1707,5890c0,65,0,130,0,195c-113,0-226,0-339,0c0.35-1.1,0.64-2.22,1.07-3.29
		c21.52-52.83,43.07-105.65,64.59-158.48c34.25-84.11,68.49-168.23,102.71-252.35c0.71-1.74,1.25-3.55,1.98-5.66
		c-5.6,0-10.41-0.04-15.22,0.02c-2.99,0.04-4.68,1.55-5.84,4.43c-7.7,19.14-15.61,38.18-23.37,57.29
		c-28.56,70.27-57.08,140.55-85.64,210.81c-1.14,2.81-2.5,5.54-4.11,9.08c-1.08-2.1-1.76-3.21-2.24-4.39
		c-10.28-25.09-20.66-50.13-30.77-75.29c-26.42-65.75-52.7-131.54-79.11-197.3c-0.61-1.51-1.86-3.72-3.04-3.87
		c-5.38-0.7-10.84-0.79-16.86-1.13c0.62,2.03,0.91,3.29,1.39,4.47c39.59,98.81,79.17,197.64,118.9,296.39
		c1.68,4.18,1.81,7.61,0.1,11.78c-13.8,33.71-27.4,67.5-41,101.29c-0.79,1.95-1.04,4.12-1.53,6.19c-524.33,0-1048.67,0-1573,0
		c0-170.67,0-341.33,0-512c597.33,0,1194.67,0,1792,0c-1.48,5.76-3.1,11.5-4.38,17.31c-0.7,3.2-2.31,4.31-5.51,4.21
		c-6.35-0.18-12.7-0.05-19.05-0.05c-0.06,0.55-0.11,1.1-0.17,1.65c4.98,3.61,9.84,7.39,14.98,10.75c2.7,1.76,3.42,3.35,2.23,6.47
		c-2.2,5.76-3.91,11.72-5.82,17.59c5.52-2.66,10.31-5.66,14.71-9.17c3.05-2.43,5.55-2.23,8.53-0.18c4.86,3.36,9.84,6.54,15.87,10.54
		c-2.78-8.45-5.14-15.62-7.48-22.73c6.02-4.5,11.75-8.77,17.48-13.05c-0.2-0.54-0.4-1.07-0.61-1.61c-5.29,0-10.59-0.17-15.87,0.05
		c-4.44,0.18-6.86-1.27-8.05-5.93c-1.39-5.43-3.86-10.58-5.86-15.84c45.67,0,91.33,0,137,0c0,103.33,0,206.67,0,310
		c-0.24-1.11-0.66-2.22-0.71-3.34c-0.97-23.19-12.86-40.49-29.8-54.95c-15.8-13.48-34.52-21.79-53.47-29.7
		c-11.35-4.74-22.92-9.15-33.7-14.99c-25.84-14.01-32.17-34.47-27.48-62.15c4.65-27.37,29.16-45.97,57.08-45.67
		c27.84,0.3,55.16,22.2,60.06,48.16c0.52,2.75,1.05,5.5,1.58,8.28c5.19,0,10.07,0,15.1,0c-0.39-3.51-0.55-6.69-1.1-9.79
		c-7.25-40.51-48.31-68.83-89.16-61.54c-31.06,5.54-55.13,29.38-59.97,61.18c-4.6,30.26,4.83,58.02,35.31,74.52
		c11.95,6.47,24.62,11.7,37.22,16.87c15.77,6.46,31.2,13.41,44.82,23.84c21.29,16.3,31.51,37.19,27.24,64.44
		c-7.56,48.16-64.29,81.55-110.53,54.02c-22.74-13.54-35.23-33.76-41.42-58.64c-1.71-6.89-2.81-13.93-4.27-21.31
		c-4.69,0.29-9.23,0.57-14.83,0.92c1.43,9.26,1.99,17.97,4.18,26.25c7.67,29.05,22.8,53.47,50.13,67.26
		c59.47,30,121.94-5.99,132.31-65.88C1706.23,5897.22,1706.54,5893.6,1707,5890z M49.22,5976.52c-0.66-2.19-0.83-2.81-1.03-3.42
		c-12.15-37.49-24.23-75-36.55-112.44c-1.28-3.9-0.59-6.13,2.54-8.42c11.02-8.07,21.93-16.28,32.87-24.44
		c19.08-14.24,38.17-28.46,57.22-42.74c1.71-1.28,3.15-2.94,4.71-4.42c-3.13-1.17-5.61-1.17-8.09-1.17
		c-36.99-0.08-73.97-0.2-110.96-0.14c-3.6,0.01-5.13-1.06-6.24-4.54c-11.48-35.78-23.16-71.5-34.81-107.23
		c-0.82-2.52-1.93-4.94-3.45-8.8c-1.26,3.59-2,5.59-2.66,7.62c-11.56,35.58-23.19,71.14-34.55,106.78
		c-1.39,4.35-3.12,5.93-7.88,5.93c-38.65,0.07-77.3,0.48-115.95,0.79c-1.7,0.01-3.41,0.17-6.08,0.31c2.22,1.67,3.51,2.68,4.84,3.65
		c31.23,22.75,62.42,45.54,93.74,68.16c3.42,2.47,3.97,4.75,2.68,8.67c-11.82,36.02-23.44,72.11-35.1,108.19
		c-0.66,2.04-1.16,4.14-2.07,7.45c3.25-2.34,5.27-3.78,7.28-5.23c30.54-21.99,61.11-43.94,91.58-66.03c3.24-2.35,5.59-2.32,8.8,0.01
		c19.28,13.98,38.72,27.73,58.05,41.63C21.47,5956.32,34.77,5966.04,49.22,5976.52z M193.64,5975.95c0-2.78-0.01-4.75,0-6.72
		c0.28-66.99,0.67-133.98,0.72-200.98c0.01-9.35,1.61-18.08,4.81-26.76c17.56-47.71,68.57-80.04,126.25-63.47
		c37.78,10.86,71.91,50.04,71.69,95.1c-0.32,65.32,0.51,130.65,0.85,195.97c0.01,1.92,0,3.85,0,5.6c5.99,0,11.21,0,16.79,0
		c0-2.4,0-4.37,0-6.35c0.13-67.49,0.19-134.99,0.53-202.48c0.03-6.19,1.07-12.63,3.01-18.5c23.77-72.17,104.63-94.05,158.67-53.42
		c27.05,20.33,41.23,47.5,41.36,81.39c0.25,64.33,0.07,128.65,0.07,192.98c0,2.13,0,4.25,0,6.65c6.15,0.33,11.7,0.63,17.35,0.93
		c0.14-1.29,0.28-1.93,0.27-2.58c-0.11-61.66-0.09-123.32-0.43-184.98c-0.09-16.46-0.96-32.86-6.46-48.79
		c-19.49-56.38-72.57-89.4-131.07-80.26c-41.04,6.42-69.87,30.05-88.96,66.33c-0.94,1.78-1.66,3.66-2.89,6.39
		c-20.22-43.28-52.85-69.23-99.82-73.5c-46.92-4.26-83.61,15.46-112.09,53.14c0-15.52,0-31.04,0-46.51c-6.54,0-12.1,0-17.7,0
		c0,103.45,0,206.52,0,310.05C182.23,5975.44,187.51,5975.68,193.64,5975.95z M951.29,5740.12c-26.51-43.36-63.23-71.94-113.4-80.7
		c-50.17-8.76-95.18,3.57-133.78,37.2c-67.74,59.03-70.14,160.79-15.82,222.84c36.59,41.8,83.11,60.06,138.3,54.42
		c55.54-5.68,95.6-35.61,124.82-82.37c0,27.78,0,55.55,0,83.43c6.18,0,11.74,0,17.26,0c0-103.42,0-206.46,0-309.56
		c-5.79,0-11.21,0-17.37,0C951.29,5690.47,951.29,5715.3,951.29,5740.12z M1285.03,5878.43c-0.28-0.13-0.56-0.37-0.84-0.37
		c-4.83-0.04-9.68,0.15-14.49-0.13c-2.82-0.16-4.04,1.02-5.28,3.36c-18.67,35.09-46.96,59.51-84.93,70.49
		c-56.26,16.27-105.56,2.22-145.71-40.31c-30.41-32.21-42.47-71.63-36.21-115.16c11.4-79.3,83.76-132.96,162.47-120.77
		c43.13,6.68,76.8,29.69,100.14,67.07c2.45,3.92,4.4,9.53,7.97,11.02c4.1,1.71,9.75-0.29,14.73-0.71c0.31-0.03,0.6-0.26,0.89-0.41
		c-2.08-13.43-24.39-43.58-45.56-60.61c-31.73-25.53-68.16-36.53-108.77-34.81c-76.91,3.27-143.18,67.26-149.55,142.25
		c-8.51,100.13,65.66,162.9,130.07,173.36C1196.62,5986.77,1260.43,5935.71,1285.03,5878.43z"/>
	<g>
		<path d="M1215.31,1145c0.38-2.07,0.58-4.23,1.18-6.19c10.46-33.79,20.93-67.58,31.54-101.29c1.31-4.17,1.22-7.59-0.08-11.78
			c-30.57-98.76-61.02-197.58-91.48-296.39c-0.37-1.19-0.59-2.44-1.07-4.47c4.63,0.34,8.83,0.42,12.97,1.13
			c0.91,0.15,1.87,2.36,2.34,3.87c20.32,65.75,40.54,131.55,60.87,197.3c7.78,25.16,15.77,50.2,23.68,75.29
			c0.37,1.19,0.89,2.29,1.73,4.39c1.24-3.54,2.29-6.26,3.17-9.08c21.97-70.27,43.92-140.54,65.89-210.81
			c5.98-19.11,12.06-38.16,17.98-57.29c0.89-2.88,2.2-4.39,4.5-4.43c3.7-0.06,7.41-0.02,11.71-0.02c-0.56,2.11-0.98,3.92-1.52,5.66
			c-26.34,84.12-52.68,168.24-79.03,252.35c-16.56,52.83-33.14,105.65-49.7,158.48c-0.33,1.06-0.55,2.19-0.83,3.29
			C1224.55,1145,1219.93,1145,1215.31,1145z"/>
		<path d="M1490,950c-0.35,3.6-0.6,7.22-1.07,10.78c-7.98,59.88-56.05,95.87-101.8,65.87c-21.03-13.79-32.68-38.21-38.57-67.26
			c-1.68-8.28-2.12-16.99-3.22-26.25c4.31-0.35,7.8-0.63,11.41-0.92c1.12,7.37,1.96,14.42,3.28,21.31
			c4.76,24.88,14.37,45.1,31.87,58.64c35.58,27.53,79.23-5.86,85.05-54.02c3.29-27.24-4.57-48.13-20.96-64.44
			c-10.48-10.43-22.35-17.38-34.48-23.84c-9.7-5.16-19.44-10.4-28.64-16.87c-23.45-16.5-30.71-44.26-27.17-74.52
			c3.72-31.8,22.24-55.64,46.14-61.18c31.43-7.29,63.02,21.03,68.6,61.54c0.43,3.1,0.55,6.27,0.85,9.79c-3.87,0-7.62,0-11.62,0
			c-0.41-2.79-0.82-5.53-1.22-8.28c-3.77-25.95-24.79-47.85-46.22-48.16c-21.48-0.3-40.34,18.29-43.92,45.67
			c-3.62,27.68,1.26,48.14,21.14,62.15c8.29,5.84,17.2,10.25,25.93,14.99c14.58,7.92,28.98,16.22,41.14,29.7
			c13.04,14.46,22.19,31.76,22.93,54.95c0.04,1.12,0.36,2.22,0.54,3.34C1490,945.33,1490,947.67,1490,950z"/>
		<path d="M1384.59,633c1.54,5.27,3.44,10.42,4.51,15.84c0.91,4.66,2.78,6.11,6.2,5.93c4.06-0.22,8.14-0.05,12.21-0.05
			c0.16,0.54,0.31,1.07,0.47,1.61c-4.41,4.28-8.81,8.55-13.45,13.05c1.8,7.12,3.62,14.29,5.76,22.73
			c-4.64-3.99-8.47-7.18-12.21-10.54c-2.29-2.05-4.22-2.25-6.56,0.18c-3.38,3.5-7.07,6.51-11.32,9.17
			c1.47-5.87,2.78-11.83,4.48-17.59c0.92-3.12,0.36-4.71-1.72-6.47c-3.95-3.36-7.7-7.14-11.53-10.74c0.04-0.55,0.09-1.1,0.13-1.65
			c4.89,0,9.78-0.13,14.66,0.05c2.46,0.09,3.7-1.02,4.24-4.22c0.98-5.81,2.23-11.54,3.37-17.31C1384.08,633,1384.33,633,1384.59,633
			z"/>
		<path class="st8" d="M214.46,1036.52c-11.12-10.48-21.35-20.21-31.64-29.82c-14.88-13.9-29.83-27.65-44.67-41.63
			c-2.48-2.33-4.28-2.36-6.77-0.01c-23.44,22.09-46.96,44.04-70.46,66.03c-1.55,1.45-3.1,2.89-5.6,5.23
			c0.7-3.31,1.09-5.41,1.59-7.45c8.97-36.08,17.91-72.16,27.01-108.19c0.99-3.93,0.58-6.2-2.06-8.67
			c-24.1-22.63-48.1-45.42-72.13-68.16c-1.02-0.97-2.02-1.98-3.72-3.65c2.06-0.14,3.37-0.3,4.68-0.31
			c29.74-0.32,59.48-0.72,89.22-0.79c3.66-0.01,5-1.59,6.07-5.93c8.74-35.64,17.69-71.2,26.59-106.78c0.51-2.03,1.08-4.03,2.05-7.62
			c1.17,3.86,2.02,6.29,2.65,8.8c8.97,35.73,17.95,71.45,26.78,107.23c0.86,3.48,2.03,4.55,4.8,4.54
			c28.46-0.06,56.92,0.07,85.37,0.14c1.91,0.01,3.82,0,6.22,1.17c-1.2,1.48-2.31,3.13-3.63,4.42
			c-14.66,14.28-29.35,28.51-44.03,42.74c-8.42,8.16-16.82,16.38-25.29,24.44c-2.4,2.29-2.94,4.52-1.95,8.42
			c9.49,37.43,18.78,74.94,28.13,112.43C213.81,1033.72,213.95,1034.34,214.46,1036.52z"/>
		<path d="M325.57,1035.95c-4.71-0.27-8.77-0.5-13.13-0.76c0-103.52,0-206.6,0-310.05c4.31,0,8.59,0,13.62,0
			c0,15.47,0,30.99,0,46.51c21.91-37.68,50.14-57.41,86.24-53.14c36.14,4.27,61.25,30.22,76.81,73.5c0.95-2.73,1.51-4.62,2.23-6.39
			c14.69-36.28,36.88-59.91,68.45-66.33c45.02-9.15,85.86,23.88,100.85,80.26c4.24,15.93,4.9,32.32,4.97,48.79
			c0.26,61.66,0.25,123.32,0.33,184.98c0,0.65-0.1,1.29-0.21,2.58c-4.34-0.3-8.62-0.6-13.35-0.93c0-2.4,0-4.53,0-6.65
			c0-64.33,0.14-128.65-0.06-192.98c-0.1-33.88-11.01-61.05-31.82-81.39c-41.58-40.63-103.8-18.74-122.09,53.42
			c-1.49,5.87-2.29,12.32-2.32,18.5c-0.26,67.49-0.31,134.98-0.41,202.48c0,1.98,0,3.95,0,6.35c-4.29,0-8.31,0-12.92,0
			c0-1.75,0.01-3.67,0-5.6c-0.26-65.32-0.9-130.65-0.65-195.97c0.17-45.06-26.09-84.25-55.16-95.1
			c-44.37-16.57-83.63,15.76-97.14,63.47c-2.46,8.69-3.7,17.42-3.7,26.76c-0.04,66.99-0.34,133.98-0.56,200.98
			C325.57,1031.2,325.57,1033.17,325.57,1035.95z"/>
		<path d="M908.53,800.12c0-24.82,0-49.65,0-74.73c4.73,0,8.9,0,13.36,0c0,103.1,0,206.14,0,309.56c-4.25,0-8.52,0-13.28,0
			c0-27.88,0-55.66,0-83.43c-22.48,46.77-53.31,76.7-96.04,82.37c-42.46,5.64-78.26-12.62-106.41-54.42
			c-41.79-62.05-39.95-163.81,12.17-222.84c29.7-33.64,64.34-45.96,102.94-37.2C859.88,728.18,888.13,756.76,908.53,800.12z
			 M798.75,1017.85c54.26,1.59,109.88-55.86,109.69-141.84c-0.18-86.28-54.2-141.32-107.67-142.05
			c-61.13-0.83-110.66,63.69-111.02,141.54C689.38,952.22,738.27,1018.45,798.75,1017.85z"/>
		<path d="M1165.32,938.44c-18.93,57.27-68.03,108.33-134.72,94.26c-49.55-10.46-106.62-73.23-100.08-173.36
			c4.9-74.99,55.89-138.98,115.07-142.25c31.24-1.73,59.28,9.28,83.69,34.81c16.29,17.03,33.45,47.18,35.05,60.61
			c-0.23,0.14-0.45,0.38-0.69,0.4c-3.83,0.41-8.18,2.42-11.33,0.71c-2.75-1.49-4.25-7.09-6.13-11.02
			c-17.95-37.37-43.86-60.39-77.05-67.07C1008.58,723.35,952.91,777,944.13,856.3c-4.82,43.53,4.46,82.96,27.86,115.16
			c30.89,42.52,68.83,56.57,112.11,40.31c29.22-10.98,50.99-35.4,65.35-70.49c0.96-2.33,1.89-3.52,4.06-3.36
			c3.71,0.28,7.43,0.09,11.15,0.13C1164.89,938.06,1165.11,938.3,1165.32,938.44z"/>
	</g>
	<path class="st7" d="M808.6,5957.85c-78.6,0.6-142.13-65.63-141.67-142.35c0.47-77.84,64.84-142.37,144.29-141.54
		c69.5,0.73,139.7,55.77,139.94,142.05C951.4,5901.99,879.13,5959.44,808.6,5957.85z"/>
</g>
</svg>
